<?xml version="1.0" encoding="UTF-8" standalone="no"?>
<svg
   xmlns:dc="http://purl.org/dc/elements/1.1/"
   xmlns:cc="http://creativecommons.org/ns#"
   xmlns:rdf="http://www.w3.org/1999/02/22-rdf-syntax-ns#"
   xmlns:svg="http://www.w3.org/2000/svg"
   xmlns="http://www.w3.org/2000/svg"
   xmlns:sodipodi="http://sodipodi.sourceforge.net/DTD/sodipodi-0.dtd"
   xmlns:inkscape="http://www.inkscape.org/namespaces/inkscape"
   version="1"
   x="0"
   y="0"
   width="55"
   height="63"
   viewBox="0 0 55 63"
   id="svg2"
   inkscape:version="0.91 r13725"
   sodipodi:docname="edit.svg"
   inkscape:export-filename="/var/www/wordpress/wp-content/plugins/molpress/img/edit.png"
   inkscape:export-xdpi="64.285713"
   inkscape:export-ydpi="64.285713">
  <sodipodi:namedview
     pagecolor="#ffffff"
     bordercolor="#666666"
     borderopacity="1"
     objecttolerance="10"
     gridtolerance="10"
     guidetolerance="10"
     inkscape:pageopacity="0"
     inkscape:pageshadow="2"
     inkscape:window-width="1319"
     inkscape:window-height="879"
     id="namedview28"
     showgrid="false"
     inkscape:zoom="7.4920635"
     inkscape:cx="28.033898"
     inkscape:cy="31.566737"
     inkscape:window-x="0"
     inkscape:window-y="0"
     inkscape:window-maximized="0"
     inkscape:current-layer="svg2" />
  <defs
     id="defs4" />
  <metadata
     id="metadata6">
    <MDLMOL><![CDATA[
SketchEl molfile

  6  6  0  0  0  0  0  0  0  0999 V2000
   -4.5010    5.0500    0.0000 C   0  0  0  0  0  0  0  0  0  0  0  0
   -5.8000    4.3000    0.0000 C   0  0  0  0  0  0  0  0  0  0  0  0
   -5.8000    2.8000    0.0000 C   0  0  0  0  0  0  0  0  0  0  0  0
   -4.5010    2.0500    0.0000 C   0  0  0  0  0  0  0  0  0  0  0  0
   -3.2019    2.8000    0.0000 C   0  0  0  0  0  0  0  0  0  0  0  0
   -3.2019    4.3000    0.0000 C   0  0  0  0  0  0  0  0  0  0  0  0
  2  3  1  0  0  0  0
  2  1  2  0  0  0  0
  3  4  2  0  0  0  0
  4  5  1  0  0  0  0
  5  6  2  0  0  0  0
  6  1  1  0  0  0  0
M  END
]]></MDLMOL>
    <Molecule><![CDATA[SketchEl!(6,6)
C=-4.5010,5.0500;0,0,i1
C=-5.8000,4.3000;0,0,i1
C=-5.8000,2.8000;0,0,i1
C=-4.5010,2.0500;0,0,i1
C=-3.2019,2.8000;0,0,i1
C=-3.2019,4.3000;0,0,i1
2-3=1,0
2-1=2,0
3-4=2,0
4-5=1,0
5-6=2,0
6-1=1,0
!End
]]></Molecule>
    <rdf:RDF>
      <cc:Work
         rdf:about="">
        <dc:format>image/svg+xml</dc:format>
        <dc:type
           rdf:resource="http://purl.org/dc/dcmitype/StillImage" />
      </cc:Work>
    </rdf:RDF>
  </metadata>
  <path
     style="color:#000000;font-style:normal;font-variant:normal;font-weight:normal;font-stretch:normal;font-size:medium;line-height:normal;font-family:sans-serif;text-indent:0;text-align:start;text-decoration:none;text-decoration-line:none;text-decoration-style:solid;text-decoration-color:#000000;letter-spacing:normal;word-spacing:normal;text-transform:none;direction:ltr;block-progression:tb;writing-mode:lr-tb;baseline-shift:baseline;text-anchor:start;white-space:normal;clip-rule:nonzero;display:inline;overflow:visible;visibility:visible;opacity:1;isolation:auto;mix-blend-mode:normal;color-interpolation:sRGB;color-interpolation-filters:linearRGB;solid-color:#000000;solid-opacity:1;fill:#000000;fill-opacity:1;fill-rule:nonzero;stroke:none;stroke-width:2;stroke-linecap:round;stroke-linejoin:miter;stroke-miterlimit:4;stroke-dasharray:none;stroke-dashoffset:0;stroke-opacity:1;color-rendering:auto;image-rendering:auto;shape-rendering:auto;text-rendering:auto;enable-background:accumulate"
     d="M 27.525391 3.9238281 A 1.0001 1.0001 0 0 0 26.861328 4.1445312 L 4.125 17.271484 A 1.0001 1.0001 0 0 0 3.4921875 18.148438 A 1.0001607 1.0001607 0 0 0 3.4902344 18.195312 A 1.0001 1.0001 0 0 0 3.4902344 18.214844 L 3.4902344 44.617188 A 1.0001 1.0001 0 0 0 3.6464844 45.333984 A 1.0001 1.0001 0 0 0 4.1328125 45.732422 L 27 58.935547 A 1.0001607 1.0001607 0 0 0 27.003906 58.9375 A 1.0001607 1.0001607 0 0 0 27.089844 58.980469 A 1.0001607 1.0001607 0 0 0 27.09375 58.982422 A 1.0001607 1.0001607 0 0 0 27.181641 59.017578 A 1.0001607 1.0001607 0 0 0 27.1875 59.019531 A 1.0001607 1.0001607 0 0 0 27.201172 59.023438 A 1.0001607 1.0001607 0 0 0 27.283203 59.044922 A 1.0001607 1.0001607 0 0 0 27.482422 59.068359 A 1.0001607 1.0001607 0 0 0 27.681641 59.052734 A 1.0001607 1.0001607 0 0 0 27.773438 59.03125 A 1.0001607 1.0001607 0 0 0 27.777344 59.029297 A 1.0001607 1.0001607 0 0 0 27.867188 59 A 1.0001607 1.0001607 0 0 0 27.873047 58.998047 A 1.0001607 1.0001607 0 0 0 27.894531 58.988281 A 1.0001607 1.0001607 0 0 0 28.044922 58.908203 L 50.871094 45.730469 A 1.0001 1.0001 0 0 0 51.359375 45.326172 A 1.0001 1.0001 0 0 0 51.369141 45.310547 A 1.0001 1.0001 0 0 0 51.408203 45.240234 A 1.0001 1.0001 0 0 0 51.509766 44.619141 L 51.509766 18.214844 A 1.0001607 1.0001607 0 0 0 51.509766 18.212891 A 1.0001 1.0001 0 0 0 51.509766 18.210938 A 1.0001607 1.0001607 0 0 0 51.509766 18.203125 A 1.0001 1.0001 0 0 0 50.869141 17.267578 L 28.134766 4.1425781 A 1.0001 1.0001 0 0 0 27.542969 3.9238281 A 1.0001 1.0001 0 0 0 27.527344 3.9238281 A 1.0001 1.0001 0 0 0 27.525391 3.9238281 z M 27.5 6.0859375 L 49.509766 18.792969 L 49.509766 44.207031 L 27.5 56.914062 L 5.4902344 44.207031 L 5.4902344 18.792969 L 27.5 6.0859375 z "
     id="line10" />
  <g
     id="g4209"
     transform="translate(1.0975985,2.0021167)"
     style="stroke-width:2;stroke-miterlimit:4;stroke-dasharray:none">
    <line
       x1="9.2696314"
       y1="18.581631"
       x2="24.634233"
       y2="9.7106142"
       id="line18"
       style="stroke:#000000;stroke-width:2;stroke-linecap:round;stroke-miterlimit:4;stroke-dasharray:none" />
    <line
       x1="9.2696314"
       y1="40.414135"
       x2="24.634233"
       y2="49.285152"
       id="line22"
       style="stroke:#000000;stroke-width:2;stroke-linecap:round;stroke-miterlimit:4;stroke-dasharray:none" />
    <line
       x1="43.54258"
       y1="38.368969"
       x2="43.54258"
       y2="20.626795"
       id="line26"
       style="stroke:#000000;stroke-width:2;stroke-linecap:round;stroke-miterlimit:4;stroke-dasharray:none" />
  </g>
</svg>
