<?xml version="1.0" encoding="UTF-8" standalone="no"?>
<svg
   xmlns:dc="http://purl.org/dc/elements/1.1/"
   xmlns:cc="http://creativecommons.org/ns#"
   xmlns:rdf="http://www.w3.org/1999/02/22-rdf-syntax-ns#"
   xmlns:svg="http://www.w3.org/2000/svg"
   xmlns="http://www.w3.org/2000/svg"
   xmlns:sodipodi="http://sodipodi.sourceforge.net/DTD/sodipodi-0.dtd"
   xmlns:inkscape="http://www.inkscape.org/namespaces/inkscape"
   version="1"
   x="0"
   y="0"
   width="55"
   height="59"
   viewBox="0 0 55 59"
   id="svg2"
   inkscape:version="0.91 r13725"
   sodipodi:docname="molecule.svg"
   inkscape:export-filename="/var/www/wordpress/wp-content/plugins/molpress/img/edit.png"
   inkscape:export-xdpi="64.285713"
   inkscape:export-ydpi="64.285713">
  <sodipodi:namedview
     pagecolor="#ffffff"
     bordercolor="#666666"
     borderopacity="1"
     objecttolerance="10"
     gridtolerance="10"
     guidetolerance="10"
     inkscape:pageopacity="0"
     inkscape:pageshadow="2"
     inkscape:window-width="1319"
     inkscape:window-height="879"
     id="namedview28"
     showgrid="false"
     inkscape:zoom="7.4920635"
     inkscape:cx="5.0762709"
     inkscape:cy="31.566737"
     inkscape:window-x="0"
     inkscape:window-y="0"
     inkscape:window-maximized="0"
     inkscape:current-layer="svg2" />
  <defs
     id="defs4" />
  <metadata
     id="metadata6">
    <MDLMOL><![CDATA[
SketchEl molfile

  6  6  0  0  0  0  0  0  0  0999 V2000
   -4.5010    5.0500    0.0000 C   0  0  0  0  0  0  0  0  0  0  0  0
   -5.8000    4.3000    0.0000 C   0  0  0  0  0  0  0  0  0  0  0  0
   -5.8000    2.8000    0.0000 C   0  0  0  0  0  0  0  0  0  0  0  0
   -4.5010    2.0500    0.0000 C   0  0  0  0  0  0  0  0  0  0  0  0
   -3.2019    2.8000    0.0000 C   0  0  0  0  0  0  0  0  0  0  0  0
   -3.2019    4.3000    0.0000 C   0  0  0  0  0  0  0  0  0  0  0  0
  2  3  1  0  0  0  0
  2  1  2  0  0  0  0
  3  4  2  0  0  0  0
  4  5  1  0  0  0  0
  5  6  2  0  0  0  0
  6  1  1  0  0  0  0
M  END
]]></MDLMOL>
    <Molecule><![CDATA[SketchEl!(6,6)
C=-4.5010,5.0500;0,0,i1
C=-5.8000,4.3000;0,0,i1
C=-5.8000,2.8000;0,0,i1
C=-4.5010,2.0500;0,0,i1
C=-3.2019,2.8000;0,0,i1
C=-3.2019,4.3000;0,0,i1
2-3=1,0
2-1=2,0
3-4=2,0
4-5=1,0
5-6=2,0
6-1=1,0
!End
]]></Molecule>
    <rdf:RDF>
      <cc:Work
         rdf:about="">
        <dc:format>image/svg+xml</dc:format>
        <dc:type
           rdf:resource="http://purl.org/dc/dcmitype/StillImage" />
        <dc:title></dc:title>
      </cc:Work>
    </rdf:RDF>
  </metadata>
  <g
     id="g4137"
     transform="translate(0,0.00405288)">
    <path
       inkscape:connector-curvature="0"
       id="line10"
       d="M 27.525391,1.9238281 A 1.0001,1.0001 0 0 0 26.861328,2.1445312 L 4.125,15.271484 a 1.0001,1.0001 0 0 0 -0.6328125,0.876954 1.0001607,1.0001607 0 0 0 -0.00195,0.04687 1.0001,1.0001 0 0 0 0,0.01953 l 0,26.402344 a 1.0001,1.0001 0 0 0 0.15625,0.716796 1.0001,1.0001 0 0 0 0.4863281,0.398438 L 27,56.935547 a 1.0001607,1.0001607 0 0 0 0.0039,0.002 1.0001607,1.0001607 0 0 0 0.08594,0.04297 1.0001607,1.0001607 0 0 0 0.0039,0.002 1.0001607,1.0001607 0 0 0 0.08789,0.03516 1.0001607,1.0001607 0 0 0 0.0059,0.002 1.0001607,1.0001607 0 0 0 0.01367,0.0039 1.0001607,1.0001607 0 0 0 0.08203,0.02148 1.0001607,1.0001607 0 0 0 0.199219,0.02344 1.0001607,1.0001607 0 0 0 0.199219,-0.01563 1.0001607,1.0001607 0 0 0 0.0918,-0.02148 1.0001607,1.0001607 0 0 0 0.0039,-0.002 1.0001607,1.0001607 0 0 0 0.08984,-0.0293 1.0001607,1.0001607 0 0 0 0.0059,-0.002 1.0001607,1.0001607 0 0 0 0.02148,-0.0098 1.0001607,1.0001607 0 0 0 0.150391,-0.08008 L 50.871094,43.730469 a 1.0001,1.0001 0 0 0 0.488281,-0.404297 1.0001,1.0001 0 0 0 0.0098,-0.01563 1.0001,1.0001 0 0 0 0.03906,-0.07031 1.0001,1.0001 0 0 0 0.101563,-0.621093 l 0,-26.404297 a 1.0001607,1.0001607 0 0 0 0,-0.002 1.0001,1.0001 0 0 0 0,-0.002 1.0001607,1.0001607 0 0 0 0,-0.0078 1.0001,1.0001 0 0 0 -0.640625,-0.935547 L 28.134766,2.1425781 a 1.0001,1.0001 0 0 0 -0.591797,-0.21875 1.0001,1.0001 0 0 0 -0.01563,0 1.0001,1.0001 0 0 0 -0.002,0 z M 27.5,4.0859375 49.509766,16.792969 l 0,25.414062 L 27.5,54.914062 5.4902344,42.207031 l 0,-25.414062 L 27.5,4.0859375 Z"
       style="color:#000000;font-style:normal;font-variant:normal;font-weight:normal;font-stretch:normal;font-size:medium;line-height:normal;font-family:sans-serif;text-indent:0;text-align:start;text-decoration:none;text-decoration-line:none;text-decoration-style:solid;text-decoration-color:#000000;letter-spacing:normal;word-spacing:normal;text-transform:none;direction:ltr;block-progression:tb;writing-mode:lr-tb;baseline-shift:baseline;text-anchor:start;white-space:normal;clip-rule:nonzero;display:inline;overflow:visible;visibility:visible;opacity:1;isolation:auto;mix-blend-mode:normal;color-interpolation:sRGB;color-interpolation-filters:linearRGB;solid-color:#000000;solid-opacity:1;fill:#000000;fill-opacity:1;fill-rule:nonzero;stroke:none;stroke-width:2;stroke-linecap:round;stroke-linejoin:miter;stroke-miterlimit:4;stroke-dasharray:none;stroke-dashoffset:0;stroke-opacity:1;color-rendering:auto;image-rendering:auto;shape-rendering:auto;text-rendering:auto;enable-background:accumulate" />
    <g
       style="stroke-width:2;stroke-miterlimit:4;stroke-dasharray:none"
       transform="translate(1.0975985,0.0021167)"
       id="g4209">
      <line
         style="stroke:#000000;stroke-width:2;stroke-linecap:round;stroke-miterlimit:4;stroke-dasharray:none"
         id="line18"
         y2="9.7106142"
         x2="24.634233"
         y1="18.581631"
         x1="9.2696314" />
      <line
         style="stroke:#000000;stroke-width:2;stroke-linecap:round;stroke-miterlimit:4;stroke-dasharray:none"
         id="line22"
         y2="49.285152"
         x2="24.634233"
         y1="40.414135"
         x1="9.2696314" />
      <line
         style="stroke:#000000;stroke-width:2;stroke-linecap:round;stroke-miterlimit:4;stroke-dasharray:none"
         id="line26"
         y2="20.626795"
         x2="43.54258"
         y1="38.368969"
         x1="43.54258" />
    </g>
  </g>
</svg>
